# xmcd
#
# Track frame offsets: 
#        150
#        12721
#        32009
#        42936
#        58681
#        72578
#        85250
#        94791
#        105065
#        116386
#        128750
#        146614
#        161980
#        180762
#        192505
#        226902
#
# Disc length: 3295 seconds
#
# Revision: 0
# Processed by: cddbd v1.5.2PL0 Copyright (c) Steve Scherf et al.
# Submitted via: ExactAudioCopy v1.3
#
DISCID=d20cdd10
DTITLE=James Brown - The Ultimate Collection - CD2
DYEAR=2018
DGENRE=Soul
TTITLE0=It's A Man's, Man's, Man's World
TTITLE1=Papa's Got A Brand New Bag
TTITLE2=Prisoner Of Love
TTITLE3=Night Train
TTITLE4=Lost Someone
TTITLE5=Think
TTITLE6=I'll Go Crazy
TTITLE7=Good Good Lovin'
TTITLE8=Try Me
TTITLE9=Please, Please, Please
TTITLE10=King Heroin
TTITLE11=Talkin' Loud And Saying Nothin'
TTITLE12=Get Up Offa That Thing
TTITLE13=I Got The Feelin'
TTITLE14=The Payback
TTITLE15=Papa Don't Take No Mess
EXTD=
EXTT0=
EXTT1=
EXTT2=
EXTT3=
EXTT4=
EXTT5=
EXTT6=
EXTT7=
EXTT8=
EXTT9=
EXTT10=
EXTT11=
EXTT12=
EXTT13=
EXTT14=
EXTT15=
PLAYORDER=
